<mxfile host="app.diagrams.net" modified="2023-08-24T05:24:52.863Z" agent="Mozilla/5.0 (Windows NT 10.0; Win64; x64) AppleWebKit/537.36 (KHTML, like Gecko) Chrome/116.0.0.0 Safari/537.36" etag="u1NSXa0iMXsdwrp235_e" version="21.6.9" type="device">
  <diagram name="Página-1" id="oNU9cKlUTS9YVENHo9R2">
    <mxGraphModel dx="2049" dy="1129" grid="1" gridSize="10" guides="1" tooltips="1" connect="1" arrows="1" fold="1" page="1" pageScale="1" pageWidth="850" pageHeight="1100" math="0" shadow="0">
      <root>
        <mxCell id="0" />
        <mxCell id="1" parent="0" />
        <mxCell id="H-jcKhknGInzjpBezFa3-115" style="edgeStyle=orthogonalEdgeStyle;rounded=0;orthogonalLoop=1;jettySize=auto;html=1;entryX=0.5;entryY=0;entryDx=0;entryDy=0;" edge="1" parent="1" source="H-jcKhknGInzjpBezFa3-42" target="H-jcKhknGInzjpBezFa3-112">
          <mxGeometry relative="1" as="geometry" />
        </mxCell>
        <mxCell id="H-jcKhknGInzjpBezFa3-42" value="Inicio" style="ellipse;whiteSpace=wrap;html=1;" vertex="1" parent="1">
          <mxGeometry x="370" width="120" height="80" as="geometry" />
        </mxCell>
        <mxCell id="H-jcKhknGInzjpBezFa3-46" value="" style="edgeStyle=orthogonalEdgeStyle;rounded=0;orthogonalLoop=1;jettySize=auto;html=1;" edge="1" parent="1" source="H-jcKhknGInzjpBezFa3-43" target="H-jcKhknGInzjpBezFa3-45">
          <mxGeometry relative="1" as="geometry" />
        </mxCell>
        <mxCell id="H-jcKhknGInzjpBezFa3-43" value="Dime que area quieres sacar?&lt;br&gt;1) Triángulo&lt;br&gt;2) Circulo&lt;br&gt;3) Rectángulo&lt;br&gt;4) Cubo&lt;br&gt;5) Cilindro&lt;br&gt;6) Salir" style="whiteSpace=wrap;html=1;" vertex="1" parent="1">
          <mxGeometry x="365.5" y="180" width="120" height="130" as="geometry" />
        </mxCell>
        <mxCell id="H-jcKhknGInzjpBezFa3-48" value="" style="edgeStyle=orthogonalEdgeStyle;rounded=0;orthogonalLoop=1;jettySize=auto;html=1;" edge="1" parent="1" source="H-jcKhknGInzjpBezFa3-45" target="H-jcKhknGInzjpBezFa3-47">
          <mxGeometry relative="1" as="geometry" />
        </mxCell>
        <mxCell id="H-jcKhknGInzjpBezFa3-45" value="opcion" style="shape=document;whiteSpace=wrap;html=1;boundedLbl=1;" vertex="1" parent="1">
          <mxGeometry x="393" y="330" width="65" height="40" as="geometry" />
        </mxCell>
        <mxCell id="H-jcKhknGInzjpBezFa3-49" style="edgeStyle=orthogonalEdgeStyle;rounded=0;orthogonalLoop=1;jettySize=auto;html=1;entryX=0.5;entryY=0;entryDx=0;entryDy=0;" edge="1" parent="1" source="H-jcKhknGInzjpBezFa3-47" target="H-jcKhknGInzjpBezFa3-50">
          <mxGeometry relative="1" as="geometry">
            <mxPoint x="60" y="460" as="targetPoint" />
          </mxGeometry>
        </mxCell>
        <mxCell id="H-jcKhknGInzjpBezFa3-61" style="edgeStyle=orthogonalEdgeStyle;rounded=0;orthogonalLoop=1;jettySize=auto;html=1;entryX=0.5;entryY=0;entryDx=0;entryDy=0;" edge="1" parent="1" source="H-jcKhknGInzjpBezFa3-47" target="H-jcKhknGInzjpBezFa3-62">
          <mxGeometry relative="1" as="geometry">
            <mxPoint x="230" y="470" as="targetPoint" />
          </mxGeometry>
        </mxCell>
        <mxCell id="H-jcKhknGInzjpBezFa3-70" style="edgeStyle=orthogonalEdgeStyle;rounded=0;orthogonalLoop=1;jettySize=auto;html=1;entryX=0.5;entryY=0;entryDx=0;entryDy=0;" edge="1" parent="1" source="H-jcKhknGInzjpBezFa3-47" target="H-jcKhknGInzjpBezFa3-69">
          <mxGeometry relative="1" as="geometry" />
        </mxCell>
        <mxCell id="H-jcKhknGInzjpBezFa3-83" style="edgeStyle=orthogonalEdgeStyle;rounded=0;orthogonalLoop=1;jettySize=auto;html=1;entryX=0.5;entryY=0;entryDx=0;entryDy=0;" edge="1" parent="1" source="H-jcKhknGInzjpBezFa3-47" target="H-jcKhknGInzjpBezFa3-82">
          <mxGeometry relative="1" as="geometry">
            <Array as="points">
              <mxPoint x="521" y="420" />
            </Array>
          </mxGeometry>
        </mxCell>
        <mxCell id="H-jcKhknGInzjpBezFa3-98" style="edgeStyle=orthogonalEdgeStyle;rounded=0;orthogonalLoop=1;jettySize=auto;html=1;entryX=0.558;entryY=0;entryDx=0;entryDy=0;entryPerimeter=0;" edge="1" parent="1" source="H-jcKhknGInzjpBezFa3-47" target="H-jcKhknGInzjpBezFa3-97">
          <mxGeometry relative="1" as="geometry" />
        </mxCell>
        <mxCell id="H-jcKhknGInzjpBezFa3-109" style="edgeStyle=orthogonalEdgeStyle;rounded=0;orthogonalLoop=1;jettySize=auto;html=1;entryX=0.5;entryY=0;entryDx=0;entryDy=0;" edge="1" parent="1" source="H-jcKhknGInzjpBezFa3-47" target="H-jcKhknGInzjpBezFa3-110">
          <mxGeometry relative="1" as="geometry">
            <mxPoint x="730" y="420" as="targetPoint" />
          </mxGeometry>
        </mxCell>
        <mxCell id="H-jcKhknGInzjpBezFa3-47" value="opcion" style="rhombus;whiteSpace=wrap;html=1;" vertex="1" parent="1">
          <mxGeometry x="385.5" y="390" width="80" height="60" as="geometry" />
        </mxCell>
        <mxCell id="H-jcKhknGInzjpBezFa3-52" value="" style="edgeStyle=orthogonalEdgeStyle;rounded=0;orthogonalLoop=1;jettySize=auto;html=1;" edge="1" parent="1" source="H-jcKhknGInzjpBezFa3-50" target="H-jcKhknGInzjpBezFa3-51">
          <mxGeometry relative="1" as="geometry" />
        </mxCell>
        <mxCell id="H-jcKhknGInzjpBezFa3-50" value="Dame la base del triangulo:" style="rounded=0;whiteSpace=wrap;html=1;" vertex="1" parent="1">
          <mxGeometry x="20" y="440" width="100" height="60" as="geometry" />
        </mxCell>
        <mxCell id="H-jcKhknGInzjpBezFa3-54" value="" style="edgeStyle=orthogonalEdgeStyle;rounded=0;orthogonalLoop=1;jettySize=auto;html=1;" edge="1" parent="1" source="H-jcKhknGInzjpBezFa3-51" target="H-jcKhknGInzjpBezFa3-53">
          <mxGeometry relative="1" as="geometry" />
        </mxCell>
        <mxCell id="H-jcKhknGInzjpBezFa3-51" value="base" style="shape=document;whiteSpace=wrap;html=1;boundedLbl=1;rounded=0;" vertex="1" parent="1">
          <mxGeometry x="35" y="530" width="70" height="40" as="geometry" />
        </mxCell>
        <mxCell id="H-jcKhknGInzjpBezFa3-56" value="" style="edgeStyle=orthogonalEdgeStyle;rounded=0;orthogonalLoop=1;jettySize=auto;html=1;" edge="1" parent="1" source="H-jcKhknGInzjpBezFa3-53" target="H-jcKhknGInzjpBezFa3-55">
          <mxGeometry relative="1" as="geometry" />
        </mxCell>
        <mxCell id="H-jcKhknGInzjpBezFa3-53" value="Dame la altura del triangulo:" style="rounded=0;whiteSpace=wrap;html=1;" vertex="1" parent="1">
          <mxGeometry x="10" y="590" width="120" height="60" as="geometry" />
        </mxCell>
        <mxCell id="H-jcKhknGInzjpBezFa3-58" value="" style="edgeStyle=orthogonalEdgeStyle;rounded=0;orthogonalLoop=1;jettySize=auto;html=1;" edge="1" parent="1" source="H-jcKhknGInzjpBezFa3-55" target="H-jcKhknGInzjpBezFa3-57">
          <mxGeometry relative="1" as="geometry" />
        </mxCell>
        <mxCell id="H-jcKhknGInzjpBezFa3-55" value="altura" style="shape=document;whiteSpace=wrap;html=1;boundedLbl=1;rounded=0;" vertex="1" parent="1">
          <mxGeometry x="45" y="670" width="50" height="30" as="geometry" />
        </mxCell>
        <mxCell id="H-jcKhknGInzjpBezFa3-60" value="" style="edgeStyle=orthogonalEdgeStyle;rounded=0;orthogonalLoop=1;jettySize=auto;html=1;" edge="1" parent="1" source="H-jcKhknGInzjpBezFa3-57" target="H-jcKhknGInzjpBezFa3-59">
          <mxGeometry relative="1" as="geometry" />
        </mxCell>
        <mxCell id="H-jcKhknGInzjpBezFa3-57" value="res=(base*altura)/2" style="whiteSpace=wrap;html=1;rounded=0;" vertex="1" parent="1">
          <mxGeometry x="10" y="730" width="120" height="60" as="geometry" />
        </mxCell>
        <mxCell id="H-jcKhknGInzjpBezFa3-118" style="edgeStyle=orthogonalEdgeStyle;rounded=0;orthogonalLoop=1;jettySize=auto;html=1;" edge="1" parent="1" source="H-jcKhknGInzjpBezFa3-59" target="H-jcKhknGInzjpBezFa3-117">
          <mxGeometry relative="1" as="geometry">
            <Array as="points">
              <mxPoint x="70" y="910" />
              <mxPoint x="425" y="910" />
            </Array>
          </mxGeometry>
        </mxCell>
        <mxCell id="H-jcKhknGInzjpBezFa3-59" value="La area del triangulo es: %.2f&quot;, res" style="whiteSpace=wrap;html=1;rounded=0;" vertex="1" parent="1">
          <mxGeometry x="10" y="820" width="120" height="60" as="geometry" />
        </mxCell>
        <mxCell id="H-jcKhknGInzjpBezFa3-64" value="" style="edgeStyle=orthogonalEdgeStyle;rounded=0;orthogonalLoop=1;jettySize=auto;html=1;" edge="1" parent="1" source="H-jcKhknGInzjpBezFa3-62" target="H-jcKhknGInzjpBezFa3-63">
          <mxGeometry relative="1" as="geometry" />
        </mxCell>
        <mxCell id="H-jcKhknGInzjpBezFa3-62" value="Dame el radio del circulo:" style="rounded=0;whiteSpace=wrap;html=1;" vertex="1" parent="1">
          <mxGeometry x="150" y="440" width="80" height="60" as="geometry" />
        </mxCell>
        <mxCell id="H-jcKhknGInzjpBezFa3-66" value="" style="edgeStyle=orthogonalEdgeStyle;rounded=0;orthogonalLoop=1;jettySize=auto;html=1;" edge="1" parent="1" source="H-jcKhknGInzjpBezFa3-63" target="H-jcKhknGInzjpBezFa3-65">
          <mxGeometry relative="1" as="geometry" />
        </mxCell>
        <mxCell id="H-jcKhknGInzjpBezFa3-63" value="radio" style="shape=document;whiteSpace=wrap;html=1;boundedLbl=1;rounded=0;" vertex="1" parent="1">
          <mxGeometry x="165" y="530" width="50" height="30" as="geometry" />
        </mxCell>
        <mxCell id="H-jcKhknGInzjpBezFa3-68" value="" style="edgeStyle=orthogonalEdgeStyle;rounded=0;orthogonalLoop=1;jettySize=auto;html=1;" edge="1" parent="1" source="H-jcKhknGInzjpBezFa3-65" target="H-jcKhknGInzjpBezFa3-67">
          <mxGeometry relative="1" as="geometry" />
        </mxCell>
        <mxCell id="H-jcKhknGInzjpBezFa3-65" value="res=((radio*radio)*3.14)" style="whiteSpace=wrap;html=1;rounded=0;" vertex="1" parent="1">
          <mxGeometry x="137.5" y="590" width="105" height="50" as="geometry" />
        </mxCell>
        <mxCell id="H-jcKhknGInzjpBezFa3-120" style="edgeStyle=orthogonalEdgeStyle;rounded=0;orthogonalLoop=1;jettySize=auto;html=1;" edge="1" parent="1" source="H-jcKhknGInzjpBezFa3-67" target="H-jcKhknGInzjpBezFa3-117">
          <mxGeometry relative="1" as="geometry">
            <Array as="points">
              <mxPoint x="190" y="910" />
              <mxPoint x="425" y="910" />
            </Array>
          </mxGeometry>
        </mxCell>
        <mxCell id="H-jcKhknGInzjpBezFa3-67" value="La area del radio del circulo: %.2f&quot;, res" style="whiteSpace=wrap;html=1;rounded=0;" vertex="1" parent="1">
          <mxGeometry x="130" y="655" width="120" height="60" as="geometry" />
        </mxCell>
        <mxCell id="H-jcKhknGInzjpBezFa3-72" value="" style="edgeStyle=orthogonalEdgeStyle;rounded=0;orthogonalLoop=1;jettySize=auto;html=1;" edge="1" parent="1" source="H-jcKhknGInzjpBezFa3-69" target="H-jcKhknGInzjpBezFa3-71">
          <mxGeometry relative="1" as="geometry" />
        </mxCell>
        <mxCell id="H-jcKhknGInzjpBezFa3-69" value="Dame la base del rectangulo:&amp;nbsp;" style="rounded=0;whiteSpace=wrap;html=1;" vertex="1" parent="1">
          <mxGeometry x="255" y="445" width="110" height="50" as="geometry" />
        </mxCell>
        <mxCell id="H-jcKhknGInzjpBezFa3-74" value="" style="edgeStyle=orthogonalEdgeStyle;rounded=0;orthogonalLoop=1;jettySize=auto;html=1;" edge="1" parent="1" source="H-jcKhknGInzjpBezFa3-71" target="H-jcKhknGInzjpBezFa3-73">
          <mxGeometry relative="1" as="geometry" />
        </mxCell>
        <mxCell id="H-jcKhknGInzjpBezFa3-71" value="base" style="shape=document;whiteSpace=wrap;html=1;boundedLbl=1;rounded=0;" vertex="1" parent="1">
          <mxGeometry x="280" y="520" width="60" height="30" as="geometry" />
        </mxCell>
        <mxCell id="H-jcKhknGInzjpBezFa3-76" value="" style="edgeStyle=orthogonalEdgeStyle;rounded=0;orthogonalLoop=1;jettySize=auto;html=1;" edge="1" parent="1" source="H-jcKhknGInzjpBezFa3-73" target="H-jcKhknGInzjpBezFa3-75">
          <mxGeometry relative="1" as="geometry" />
        </mxCell>
        <mxCell id="H-jcKhknGInzjpBezFa3-73" value="Dame la altura del rectangulo:" style="whiteSpace=wrap;html=1;rounded=0;" vertex="1" parent="1">
          <mxGeometry x="250" y="580" width="120" height="60" as="geometry" />
        </mxCell>
        <mxCell id="H-jcKhknGInzjpBezFa3-78" value="" style="edgeStyle=orthogonalEdgeStyle;rounded=0;orthogonalLoop=1;jettySize=auto;html=1;" edge="1" parent="1" source="H-jcKhknGInzjpBezFa3-75" target="H-jcKhknGInzjpBezFa3-77">
          <mxGeometry relative="1" as="geometry" />
        </mxCell>
        <mxCell id="H-jcKhknGInzjpBezFa3-75" value="altura" style="shape=document;whiteSpace=wrap;html=1;boundedLbl=1;rounded=0;" vertex="1" parent="1">
          <mxGeometry x="275" y="670" width="70" height="50" as="geometry" />
        </mxCell>
        <mxCell id="H-jcKhknGInzjpBezFa3-80" value="" style="edgeStyle=orthogonalEdgeStyle;rounded=0;orthogonalLoop=1;jettySize=auto;html=1;" edge="1" parent="1" source="H-jcKhknGInzjpBezFa3-77" target="H-jcKhknGInzjpBezFa3-79">
          <mxGeometry relative="1" as="geometry" />
        </mxCell>
        <mxCell id="H-jcKhknGInzjpBezFa3-77" value="res=(base*altura)" style="whiteSpace=wrap;html=1;rounded=0;" vertex="1" parent="1">
          <mxGeometry x="260" y="740" width="100" height="40" as="geometry" />
        </mxCell>
        <mxCell id="H-jcKhknGInzjpBezFa3-119" style="edgeStyle=orthogonalEdgeStyle;rounded=0;orthogonalLoop=1;jettySize=auto;html=1;entryX=0.5;entryY=0;entryDx=0;entryDy=0;" edge="1" parent="1" source="H-jcKhknGInzjpBezFa3-79" target="H-jcKhknGInzjpBezFa3-117">
          <mxGeometry relative="1" as="geometry">
            <Array as="points">
              <mxPoint x="310" y="910" />
              <mxPoint x="425" y="910" />
            </Array>
          </mxGeometry>
        </mxCell>
        <mxCell id="H-jcKhknGInzjpBezFa3-79" value="La area del rectangulo es: %.2f&quot;, res" style="whiteSpace=wrap;html=1;rounded=0;" vertex="1" parent="1">
          <mxGeometry x="250" y="800" width="120" height="60" as="geometry" />
        </mxCell>
        <mxCell id="H-jcKhknGInzjpBezFa3-85" value="" style="edgeStyle=orthogonalEdgeStyle;rounded=0;orthogonalLoop=1;jettySize=auto;html=1;" edge="1" parent="1" source="H-jcKhknGInzjpBezFa3-82" target="H-jcKhknGInzjpBezFa3-84">
          <mxGeometry relative="1" as="geometry" />
        </mxCell>
        <mxCell id="H-jcKhknGInzjpBezFa3-82" value="Dame la base del cubo:&amp;nbsp;" style="rounded=0;whiteSpace=wrap;html=1;" vertex="1" parent="1">
          <mxGeometry x="465.5" y="450" width="104.5" height="45" as="geometry" />
        </mxCell>
        <mxCell id="H-jcKhknGInzjpBezFa3-87" value="" style="edgeStyle=orthogonalEdgeStyle;rounded=0;orthogonalLoop=1;jettySize=auto;html=1;" edge="1" parent="1" source="H-jcKhknGInzjpBezFa3-84" target="H-jcKhknGInzjpBezFa3-86">
          <mxGeometry relative="1" as="geometry" />
        </mxCell>
        <mxCell id="H-jcKhknGInzjpBezFa3-84" value="base" style="shape=document;whiteSpace=wrap;html=1;boundedLbl=1;rounded=0;" vertex="1" parent="1">
          <mxGeometry x="490.25" y="520" width="60.5" height="32.5" as="geometry" />
        </mxCell>
        <mxCell id="H-jcKhknGInzjpBezFa3-91" value="" style="edgeStyle=orthogonalEdgeStyle;rounded=0;orthogonalLoop=1;jettySize=auto;html=1;" edge="1" parent="1" source="H-jcKhknGInzjpBezFa3-86" target="H-jcKhknGInzjpBezFa3-90">
          <mxGeometry relative="1" as="geometry" />
        </mxCell>
        <mxCell id="H-jcKhknGInzjpBezFa3-86" value="Dame la altura del rectangulo:" style="whiteSpace=wrap;html=1;rounded=0;" vertex="1" parent="1">
          <mxGeometry x="460.75" y="580" width="109.25" height="41.25" as="geometry" />
        </mxCell>
        <mxCell id="H-jcKhknGInzjpBezFa3-93" value="" style="edgeStyle=orthogonalEdgeStyle;rounded=0;orthogonalLoop=1;jettySize=auto;html=1;" edge="1" parent="1" source="H-jcKhknGInzjpBezFa3-90" target="H-jcKhknGInzjpBezFa3-92">
          <mxGeometry relative="1" as="geometry" />
        </mxCell>
        <mxCell id="H-jcKhknGInzjpBezFa3-90" value="altura" style="shape=document;whiteSpace=wrap;html=1;boundedLbl=1;rounded=0;" vertex="1" parent="1">
          <mxGeometry x="480.75" y="655" width="79.5" height="38.13" as="geometry" />
        </mxCell>
        <mxCell id="H-jcKhknGInzjpBezFa3-95" value="" style="edgeStyle=orthogonalEdgeStyle;rounded=0;orthogonalLoop=1;jettySize=auto;html=1;" edge="1" parent="1" source="H-jcKhknGInzjpBezFa3-92" target="H-jcKhknGInzjpBezFa3-94">
          <mxGeometry relative="1" as="geometry" />
        </mxCell>
        <mxCell id="H-jcKhknGInzjpBezFa3-92" value="res=(base*altura)" style="whiteSpace=wrap;html=1;rounded=0;" vertex="1" parent="1">
          <mxGeometry x="466.25" y="720" width="103.75" height="40" as="geometry" />
        </mxCell>
        <mxCell id="H-jcKhknGInzjpBezFa3-121" style="edgeStyle=orthogonalEdgeStyle;rounded=0;orthogonalLoop=1;jettySize=auto;html=1;entryX=0.5;entryY=0;entryDx=0;entryDy=0;" edge="1" parent="1" source="H-jcKhknGInzjpBezFa3-94" target="H-jcKhknGInzjpBezFa3-117">
          <mxGeometry relative="1" as="geometry">
            <Array as="points">
              <mxPoint x="515" y="910" />
              <mxPoint x="425" y="910" />
            </Array>
          </mxGeometry>
        </mxCell>
        <mxCell id="H-jcKhknGInzjpBezFa3-94" value="La area del rectangulo es: %.2f&quot;, res" style="whiteSpace=wrap;html=1;rounded=0;" vertex="1" parent="1">
          <mxGeometry x="460.88" y="790" width="109.13" height="60" as="geometry" />
        </mxCell>
        <mxCell id="H-jcKhknGInzjpBezFa3-100" value="" style="edgeStyle=orthogonalEdgeStyle;rounded=0;orthogonalLoop=1;jettySize=auto;html=1;" edge="1" parent="1" source="H-jcKhknGInzjpBezFa3-97" target="H-jcKhknGInzjpBezFa3-99">
          <mxGeometry relative="1" as="geometry" />
        </mxCell>
        <mxCell id="H-jcKhknGInzjpBezFa3-97" value="Dame radio del cilindro:" style="rounded=0;whiteSpace=wrap;html=1;" vertex="1" parent="1">
          <mxGeometry x="590" y="450" width="100" height="50" as="geometry" />
        </mxCell>
        <mxCell id="H-jcKhknGInzjpBezFa3-102" value="" style="edgeStyle=orthogonalEdgeStyle;rounded=0;orthogonalLoop=1;jettySize=auto;html=1;" edge="1" parent="1" source="H-jcKhknGInzjpBezFa3-99" target="H-jcKhknGInzjpBezFa3-101">
          <mxGeometry relative="1" as="geometry" />
        </mxCell>
        <mxCell id="H-jcKhknGInzjpBezFa3-99" value="radio" style="shape=document;whiteSpace=wrap;html=1;boundedLbl=1;rounded=0;" vertex="1" parent="1">
          <mxGeometry x="610" y="525" width="60" height="35" as="geometry" />
        </mxCell>
        <mxCell id="H-jcKhknGInzjpBezFa3-104" value="" style="edgeStyle=orthogonalEdgeStyle;rounded=0;orthogonalLoop=1;jettySize=auto;html=1;" edge="1" parent="1" source="H-jcKhknGInzjpBezFa3-101" target="H-jcKhknGInzjpBezFa3-103">
          <mxGeometry relative="1" as="geometry" />
        </mxCell>
        <mxCell id="H-jcKhknGInzjpBezFa3-101" value="Dame la altura del cilindro:&amp;nbsp;" style="whiteSpace=wrap;html=1;rounded=0;" vertex="1" parent="1">
          <mxGeometry x="585" y="587.5" width="110" height="45" as="geometry" />
        </mxCell>
        <mxCell id="H-jcKhknGInzjpBezFa3-106" value="" style="edgeStyle=orthogonalEdgeStyle;rounded=0;orthogonalLoop=1;jettySize=auto;html=1;" edge="1" parent="1" source="H-jcKhknGInzjpBezFa3-103" target="H-jcKhknGInzjpBezFa3-105">
          <mxGeometry relative="1" as="geometry" />
        </mxCell>
        <mxCell id="H-jcKhknGInzjpBezFa3-103" value="altura" style="shape=document;whiteSpace=wrap;html=1;boundedLbl=1;rounded=0;" vertex="1" parent="1">
          <mxGeometry x="610" y="665" width="60" height="35" as="geometry" />
        </mxCell>
        <mxCell id="H-jcKhknGInzjpBezFa3-108" value="" style="edgeStyle=orthogonalEdgeStyle;rounded=0;orthogonalLoop=1;jettySize=auto;html=1;" edge="1" parent="1" source="H-jcKhknGInzjpBezFa3-105" target="H-jcKhknGInzjpBezFa3-107">
          <mxGeometry relative="1" as="geometry" />
        </mxCell>
        <mxCell id="H-jcKhknGInzjpBezFa3-105" value="&amp;nbsp;res=((2*3.14*radio*altura)+(2*3.14*(radio*radio)))" style="whiteSpace=wrap;html=1;rounded=0;" vertex="1" parent="1">
          <mxGeometry x="580" y="720" width="120" height="60" as="geometry" />
        </mxCell>
        <mxCell id="H-jcKhknGInzjpBezFa3-122" style="edgeStyle=orthogonalEdgeStyle;rounded=0;orthogonalLoop=1;jettySize=auto;html=1;entryX=0.5;entryY=0;entryDx=0;entryDy=0;" edge="1" parent="1" source="H-jcKhknGInzjpBezFa3-107" target="H-jcKhknGInzjpBezFa3-117">
          <mxGeometry relative="1" as="geometry">
            <Array as="points">
              <mxPoint x="640" y="910" />
              <mxPoint x="425" y="910" />
            </Array>
          </mxGeometry>
        </mxCell>
        <mxCell id="H-jcKhknGInzjpBezFa3-107" value="La area del cilindro es: %.2f&quot;, res" style="whiteSpace=wrap;html=1;rounded=0;" vertex="1" parent="1">
          <mxGeometry x="585" y="810" width="110" height="40" as="geometry" />
        </mxCell>
        <mxCell id="H-jcKhknGInzjpBezFa3-123" style="edgeStyle=orthogonalEdgeStyle;rounded=0;orthogonalLoop=1;jettySize=auto;html=1;entryX=0.5;entryY=0;entryDx=0;entryDy=0;" edge="1" parent="1" source="H-jcKhknGInzjpBezFa3-110" target="H-jcKhknGInzjpBezFa3-117">
          <mxGeometry relative="1" as="geometry">
            <Array as="points">
              <mxPoint x="760" y="910" />
              <mxPoint x="425" y="910" />
            </Array>
          </mxGeometry>
        </mxCell>
        <mxCell id="H-jcKhknGInzjpBezFa3-110" value="Adiios" style="rounded=0;whiteSpace=wrap;html=1;" vertex="1" parent="1">
          <mxGeometry x="710" y="450" width="100" height="50" as="geometry" />
        </mxCell>
        <mxCell id="H-jcKhknGInzjpBezFa3-116" style="edgeStyle=orthogonalEdgeStyle;rounded=0;orthogonalLoop=1;jettySize=auto;html=1;entryX=0.534;entryY=0.008;entryDx=0;entryDy=0;entryPerimeter=0;" edge="1" parent="1" source="H-jcKhknGInzjpBezFa3-112" target="H-jcKhknGInzjpBezFa3-43">
          <mxGeometry relative="1" as="geometry" />
        </mxCell>
        <mxCell id="H-jcKhknGInzjpBezFa3-112" value="do" style="rhombus;whiteSpace=wrap;html=1;" vertex="1" parent="1">
          <mxGeometry x="390" y="110" width="80" height="40" as="geometry" />
        </mxCell>
        <mxCell id="H-jcKhknGInzjpBezFa3-125" value="" style="edgeStyle=orthogonalEdgeStyle;rounded=0;orthogonalLoop=1;jettySize=auto;html=1;" edge="1" parent="1" source="H-jcKhknGInzjpBezFa3-117" target="H-jcKhknGInzjpBezFa3-124">
          <mxGeometry relative="1" as="geometry" />
        </mxCell>
        <mxCell id="H-jcKhknGInzjpBezFa3-126" style="edgeStyle=orthogonalEdgeStyle;rounded=0;orthogonalLoop=1;jettySize=auto;html=1;entryX=1;entryY=0.5;entryDx=0;entryDy=0;" edge="1" parent="1" source="H-jcKhknGInzjpBezFa3-117" target="H-jcKhknGInzjpBezFa3-112">
          <mxGeometry relative="1" as="geometry">
            <Array as="points">
              <mxPoint x="830" y="975" />
              <mxPoint x="830" y="130" />
            </Array>
          </mxGeometry>
        </mxCell>
        <mxCell id="H-jcKhknGInzjpBezFa3-117" value="opcion&amp;lt;=5 &lt;br&gt;&amp;amp;&amp;amp; &lt;br&gt;opcion&amp;gt;=1" style="rhombus;whiteSpace=wrap;html=1;" vertex="1" parent="1">
          <mxGeometry x="360.5" y="930" width="130" height="90" as="geometry" />
        </mxCell>
        <mxCell id="H-jcKhknGInzjpBezFa3-124" value="Fin" style="ellipse;whiteSpace=wrap;html=1;" vertex="1" parent="1">
          <mxGeometry x="383.63" y="1040" width="83.75" height="50" as="geometry" />
        </mxCell>
      </root>
    </mxGraphModel>
  </diagram>
</mxfile>
